<svg height="498pt" viewBox="0 -1 498.24 498" width="498pt" xmlns="http://www.w3.org/2000/svg"><path d="m418.238281 416.121094h16v16h-16zm0 0"/><path d="m482.238281 280.121094v16h-16v-8c0-13.234375-10.765625-24-24-24v-16c0-8.824219-7.175781-16-16-16h-48c-8.824219 0-16 7.175781-16 16v16h-78.902343c6.671874-4.730469 12.039062-11.3125 15.25-19.3125l11.46875-28.6875h-11.816407c-17.644531 0-32-14.351563-32-32v-80c0-57.34375-46.652343-104-104-104-57.34375 0-104 46.65625-104 104v80c0 17.648437-14.351562 32-32 32h-11.8125l11.46875 28.679687c3.402344 8.488281 9.21875 15.40625 16.464844 20.167969-11.085937 7.625-19.335937 19.03125-22.695313 32.472656l-19.664062 78.679688h258.238281v24h16v-24h16v-32h16v-32h80v104h-136c-13.230469 0-24 10.765625-24 24v56h240v-152h16v16h16v-80zm-104-32h48v16h-48zm-340.71875-17.335938c21.039063-5.089844 36.71875-24.082031 36.71875-46.664062v-80c0-48.519532 39.480469-88 88-88 48.523438 0 88 39.480468 88 88v80c0 22.582031 15.683594 41.574218 36.722657 46.664062l-3.234376 8.085938c-3.816406 9.5625-12.496093 15.96875-22.550781 17.03125l-50.9375-13.894532v-20.375c14.691407-13.191406 24-32.265624 24-53.511718v-48c0-13.234375-10.765625-24-24-24h-96c-13.230469 0-24 10.765625-24 24v48c0 21.246094 9.3125 40.320312 24 53.511718v20.375l-50.925781 13.886719c-10.054688-1.0625-18.738281-7.480469-22.550781-17.039062zm156.71875 15.789063c-1.734375 3.824219-9.550781 17.546875-32 17.546875-22.277343 0-30.175781-13.625-32-17.570313v-14.03125c9.65625 4.816407 20.496094 7.601563 32 7.601563 11.503907 0 22.347657-2.777344 32-7.601563zm-32-22.453125c-30.871093 0-56-25.121094-56-56v-48c0-4.410156 3.585938-8 8-8h96c4.417969 0 8 3.589844 8 8v48c0 30.878906-25.125 56-56 56zm-141.757812 136 14.695312-58.792969c3.503907-14.015625 14.34375-25.089844 28.28125-28.886719l1.527344-.417968c.421875.015624.832031.097656 1.253906.097656v-.433594l51.832031-14.136719c5.378907 8.722657 18.019532 22.570313 44.167969 22.570313 26.152344 0 38.792969-13.847656 44.167969-22.570313l33.335938 9.089844c-7.957032 3.910156-13.503907 12.023437-13.503907 21.480469v56h16v16zm253.757812 0h-16v-16h16zm16-64v32h-48v-40c0-4.410156 3.585938-8 8-8h192c4.417969 0 8 3.589844 8 8v96h-48v-88zm-48 184v-16h16v-16h-16v-8c0-4.410156 3.585938-8 8-8h152v-32h48v48h-176v16h176v16zm224-152v-16h16v16zm0 0"/></svg>